<mxfile host="app.diagrams.net" modified="2024-06-17T01:23:26.022Z" agent="Mozilla/5.0 (Windows NT 10.0; Win64; x64) AppleWebKit/537.36 (KHTML, like Gecko) Chrome/125.0.0.0 Safari/537.36" etag="76h7-mEmx0In7YRC3jna" version="24.2.5" type="device" pages="2">
  <diagram name="Using ML" id="80V44YbCTZf2vej7g3pq">
    <mxGraphModel dx="1259" dy="655" grid="1" gridSize="10" guides="1" tooltips="1" connect="1" arrows="1" fold="1" page="1" pageScale="1" pageWidth="850" pageHeight="1100" math="0" shadow="0">
      <root>
        <mxCell id="0" />
        <mxCell id="1" parent="0" />
        <mxCell id="6gfI8FkgVVdgUtyDe345-52" value="HUB" style="rounded=0;whiteSpace=wrap;html=1;fillColor=#f5f5f5;fontColor=#333333;strokeColor=#666666;dashed=1;verticalAlign=top;" vertex="1" parent="1">
          <mxGeometry x="40" y="480" width="280" height="400.25" as="geometry" />
        </mxCell>
        <mxCell id="6gfI8FkgVVdgUtyDe345-39" value="Sentinel" style="rounded=0;whiteSpace=wrap;html=1;fillColor=#fff2cc;strokeColor=#d6b656;dashed=1;verticalAlign=top;" vertex="1" parent="1">
          <mxGeometry x="360" y="480" width="320" height="400.25" as="geometry" />
        </mxCell>
        <mxCell id="6gfI8FkgVVdgUtyDe345-18" value="Real-Time Visualization" style="rounded=0;whiteSpace=wrap;html=1;fillColor=#dae8fc;strokeColor=#6c8ebf;dashed=1;verticalAlign=top;" vertex="1" parent="1">
          <mxGeometry x="720" y="40" width="280" height="400" as="geometry" />
        </mxCell>
        <mxCell id="6gfI8FkgVVdgUtyDe345-6" value="Storage Node" style="rounded=0;whiteSpace=wrap;html=1;fillColor=#f5f5f5;fontColor=#333333;strokeColor=#666666;dashed=1;verticalAlign=top;" vertex="1" parent="1">
          <mxGeometry x="40" y="39.75" width="280" height="400.25" as="geometry" />
        </mxCell>
        <mxCell id="6gfI8FkgVVdgUtyDe345-1" value="write control" style="rounded=0;whiteSpace=wrap;html=1;" vertex="1" parent="1">
          <mxGeometry x="120" y="99.75" width="120" height="60" as="geometry" />
        </mxCell>
        <mxCell id="6gfI8FkgVVdgUtyDe345-5" style="edgeStyle=orthogonalEdgeStyle;rounded=0;orthogonalLoop=1;jettySize=auto;html=1;" edge="1" parent="1" source="6gfI8FkgVVdgUtyDe345-2" target="6gfI8FkgVVdgUtyDe345-4">
          <mxGeometry relative="1" as="geometry" />
        </mxCell>
        <mxCell id="6gfI8FkgVVdgUtyDe345-2" value="DB" style="outlineConnect=0;dashed=0;verticalLabelPosition=bottom;verticalAlign=top;align=center;html=1;shape=mxgraph.aws3.dynamo_db;fillColor=#2E73B8;gradientColor=none;labelBackgroundColor=default;" vertex="1" parent="1">
          <mxGeometry x="160" y="224.38" width="40" height="40.25" as="geometry" />
        </mxCell>
        <mxCell id="6gfI8FkgVVdgUtyDe345-3" style="edgeStyle=orthogonalEdgeStyle;rounded=0;orthogonalLoop=1;jettySize=auto;html=1;entryX=0.5;entryY=0;entryDx=0;entryDy=0;entryPerimeter=0;" edge="1" parent="1" source="6gfI8FkgVVdgUtyDe345-1" target="6gfI8FkgVVdgUtyDe345-2">
          <mxGeometry relative="1" as="geometry" />
        </mxCell>
        <mxCell id="6gfI8FkgVVdgUtyDe345-4" value="S3" style="sketch=0;outlineConnect=0;fontColor=#232F3E;gradientColor=none;fillColor=#7AA116;strokeColor=none;dashed=0;verticalLabelPosition=bottom;verticalAlign=top;align=center;html=1;fontSize=12;fontStyle=0;aspect=fixed;pointerEvents=1;shape=mxgraph.aws4.bucket;labelBackgroundColor=default;" vertex="1" parent="1">
          <mxGeometry x="155.95999999999998" y="329.37" width="48.08" height="50" as="geometry" />
        </mxCell>
        <mxCell id="6gfI8FkgVVdgUtyDe345-7" value="Sentinel" style="rounded=0;whiteSpace=wrap;html=1;fillColor=#fff2cc;strokeColor=#d6b656;dashed=1;verticalAlign=top;" vertex="1" parent="1">
          <mxGeometry x="360" y="39.75" width="320" height="400.25" as="geometry" />
        </mxCell>
        <mxCell id="6gfI8FkgVVdgUtyDe345-34" style="edgeStyle=orthogonalEdgeStyle;rounded=0;orthogonalLoop=1;jettySize=auto;html=1;" edge="1" parent="1" source="6gfI8FkgVVdgUtyDe345-8" target="6gfI8FkgVVdgUtyDe345-4">
          <mxGeometry relative="1" as="geometry">
            <Array as="points">
              <mxPoint x="250" y="354" />
              <mxPoint x="250" y="354" />
            </Array>
          </mxGeometry>
        </mxCell>
        <mxCell id="6gfI8FkgVVdgUtyDe345-8" value="" style="sketch=0;outlineConnect=0;fontColor=#232F3E;gradientColor=none;fillColor=#8C4FFF;strokeColor=none;dashed=0;verticalLabelPosition=bottom;verticalAlign=top;align=center;html=1;fontSize=12;fontStyle=0;aspect=fixed;pointerEvents=1;shape=mxgraph.aws4.glue_data_catalog;" vertex="1" parent="1">
          <mxGeometry x="386.54" y="334.37" width="36.92" height="40" as="geometry" />
        </mxCell>
        <mxCell id="6gfI8FkgVVdgUtyDe345-11" style="edgeStyle=orthogonalEdgeStyle;rounded=0;orthogonalLoop=1;jettySize=auto;html=1;" edge="1" parent="1" source="6gfI8FkgVVdgUtyDe345-10" target="6gfI8FkgVVdgUtyDe345-8">
          <mxGeometry relative="1" as="geometry" />
        </mxCell>
        <mxCell id="6gfI8FkgVVdgUtyDe345-13" style="edgeStyle=orthogonalEdgeStyle;rounded=0;orthogonalLoop=1;jettySize=auto;html=1;" edge="1" parent="1" source="6gfI8FkgVVdgUtyDe345-10" target="6gfI8FkgVVdgUtyDe345-12">
          <mxGeometry relative="1" as="geometry" />
        </mxCell>
        <mxCell id="6gfI8FkgVVdgUtyDe345-10" value="Glue ETL" style="sketch=0;points=[[0,0,0],[0.25,0,0],[0.5,0,0],[0.75,0,0],[1,0,0],[0,1,0],[0.25,1,0],[0.5,1,0],[0.75,1,0],[1,1,0],[0,0.25,0],[0,0.5,0],[0,0.75,0],[1,0.25,0],[1,0.5,0],[1,0.75,0]];outlineConnect=0;fontColor=#232F3E;fillColor=#8C4FFF;strokeColor=#ffffff;dashed=0;verticalLabelPosition=bottom;verticalAlign=top;align=center;html=1;fontSize=12;fontStyle=0;aspect=fixed;shape=mxgraph.aws4.resourceIcon;resIcon=mxgraph.aws4.glue;labelBackgroundColor=default;" vertex="1" parent="1">
          <mxGeometry x="495" y="329.37" width="50" height="50" as="geometry" />
        </mxCell>
        <mxCell id="6gfI8FkgVVdgUtyDe345-12" value="S3" style="sketch=0;outlineConnect=0;fontColor=#232F3E;gradientColor=none;fillColor=#7AA116;strokeColor=none;dashed=0;verticalLabelPosition=bottom;verticalAlign=top;align=center;html=1;fontSize=12;fontStyle=0;aspect=fixed;pointerEvents=1;shape=mxgraph.aws4.bucket;labelBackgroundColor=default;" vertex="1" parent="1">
          <mxGeometry x="495.96" y="219.5" width="48.08" height="50" as="geometry" />
        </mxCell>
        <mxCell id="6gfI8FkgVVdgUtyDe345-15" style="edgeStyle=orthogonalEdgeStyle;rounded=0;orthogonalLoop=1;jettySize=auto;html=1;" edge="1" parent="1" source="6gfI8FkgVVdgUtyDe345-14" target="6gfI8FkgVVdgUtyDe345-12">
          <mxGeometry relative="1" as="geometry" />
        </mxCell>
        <mxCell id="6gfI8FkgVVdgUtyDe345-14" value="Sagemaker" style="sketch=0;points=[[0,0,0],[0.25,0,0],[0.5,0,0],[0.75,0,0],[1,0,0],[0,1,0],[0.25,1,0],[0.5,1,0],[0.75,1,0],[1,1,0],[0,0.25,0],[0,0.5,0],[0,0.75,0],[1,0.25,0],[1,0.5,0],[1,0.75,0]];outlineConnect=0;fontColor=#232F3E;fillColor=#01A88D;strokeColor=#ffffff;dashed=0;verticalLabelPosition=bottom;verticalAlign=top;align=center;html=1;fontSize=12;fontStyle=0;aspect=fixed;shape=mxgraph.aws4.resourceIcon;resIcon=mxgraph.aws4.sagemaker;labelBackgroundColor=default;" vertex="1" parent="1">
          <mxGeometry x="425" y="104.75" width="50.25" height="50.25" as="geometry" />
        </mxCell>
        <mxCell id="6gfI8FkgVVdgUtyDe345-17" style="edgeStyle=orthogonalEdgeStyle;rounded=0;orthogonalLoop=1;jettySize=auto;html=1;" edge="1" parent="1" source="6gfI8FkgVVdgUtyDe345-16" target="6gfI8FkgVVdgUtyDe345-12">
          <mxGeometry relative="1" as="geometry">
            <Array as="points">
              <mxPoint x="700" y="130" />
              <mxPoint x="700" y="245" />
            </Array>
          </mxGeometry>
        </mxCell>
        <mxCell id="6gfI8FkgVVdgUtyDe345-23" style="edgeStyle=orthogonalEdgeStyle;rounded=0;orthogonalLoop=1;jettySize=auto;html=1;entryX=0.5;entryY=0;entryDx=0;entryDy=0;" edge="1" parent="1" source="6gfI8FkgVVdgUtyDe345-16" target="6gfI8FkgVVdgUtyDe345-21">
          <mxGeometry relative="1" as="geometry">
            <Array as="points">
              <mxPoint x="850" y="200" />
              <mxPoint x="780" y="200" />
            </Array>
          </mxGeometry>
        </mxCell>
        <mxCell id="6gfI8FkgVVdgUtyDe345-19" value="Alertas" style="shadow=0;dashed=0;html=1;strokeColor=none;fillColor=#4495D1;labelPosition=center;verticalLabelPosition=bottom;verticalAlign=top;align=center;outlineConnect=0;shape=mxgraph.veeam.2d.alert;labelBackgroundColor=default;" vertex="1" parent="1">
          <mxGeometry x="835" y="360" width="33.2" height="33.2" as="geometry" />
        </mxCell>
        <mxCell id="6gfI8FkgVVdgUtyDe345-21" value="Gráficos" style="image;html=1;image=img/lib/clip_art/finance/Pie_Chart_128x128.png" vertex="1" parent="1">
          <mxGeometry x="745" y="240" width="70" height="60.25" as="geometry" />
        </mxCell>
        <mxCell id="6gfI8FkgVVdgUtyDe345-26" style="edgeStyle=orthogonalEdgeStyle;rounded=0;orthogonalLoop=1;jettySize=auto;html=1;" edge="1" parent="1" source="6gfI8FkgVVdgUtyDe345-22" target="6gfI8FkgVVdgUtyDe345-19">
          <mxGeometry relative="1" as="geometry">
            <Array as="points">
              <mxPoint x="910" y="340" />
              <mxPoint x="852" y="340" />
            </Array>
          </mxGeometry>
        </mxCell>
        <mxCell id="6gfI8FkgVVdgUtyDe345-22" value="Detecção de anomalias" style="verticalLabelPosition=bottom;shadow=0;dashed=0;align=center;html=1;verticalAlign=top;strokeWidth=1;shape=mxgraph.mockup.graphics.lineChart;strokeColor=none;strokeColor2=#666666;strokeColor3=#008cff;strokeColor4=#dddddd;labelBackgroundColor=default;" vertex="1" parent="1">
          <mxGeometry x="845" y="245.25" width="130" height="49.75" as="geometry" />
        </mxCell>
        <mxCell id="6gfI8FkgVVdgUtyDe345-36" style="edgeStyle=orthogonalEdgeStyle;rounded=0;orthogonalLoop=1;jettySize=auto;html=1;" edge="1" parent="1" source="6gfI8FkgVVdgUtyDe345-30" target="6gfI8FkgVVdgUtyDe345-12">
          <mxGeometry relative="1" as="geometry">
            <Array as="points">
              <mxPoint x="520" y="130" />
            </Array>
          </mxGeometry>
        </mxCell>
        <mxCell id="6gfI8FkgVVdgUtyDe345-30" value="AWS Forecast" style="sketch=0;points=[[0,0,0],[0.25,0,0],[0.5,0,0],[0.75,0,0],[1,0,0],[0,1,0],[0.25,1,0],[0.5,1,0],[0.75,1,0],[1,1,0],[0,0.25,0],[0,0.5,0],[0,0.75,0],[1,0.25,0],[1,0.5,0],[1,0.75,0]];outlineConnect=0;fontColor=#232F3E;fillColor=#01A88D;strokeColor=#ffffff;dashed=0;verticalLabelPosition=bottom;verticalAlign=top;align=center;html=1;fontSize=12;fontStyle=0;aspect=fixed;shape=mxgraph.aws4.resourceIcon;resIcon=mxgraph.aws4.forecast;labelBackgroundColor=default;" vertex="1" parent="1">
          <mxGeometry x="560" y="104.75" width="50" height="50" as="geometry" />
        </mxCell>
        <mxCell id="6gfI8FkgVVdgUtyDe345-32" value="event bridge" style="sketch=0;points=[[0,0,0],[0.25,0,0],[0.5,0,0],[0.75,0,0],[1,0,0],[0,1,0],[0.25,1,0],[0.5,1,0],[0.75,1,0],[1,1,0],[0,0.25,0],[0,0.5,0],[0,0.75,0],[1,0.25,0],[1,0.5,0],[1,0.75,0]];outlineConnect=0;fontColor=#232F3E;fillColor=#E7157B;strokeColor=#ffffff;dashed=0;verticalLabelPosition=bottom;verticalAlign=top;align=center;html=1;fontSize=12;fontStyle=0;aspect=fixed;shape=mxgraph.aws4.resourceIcon;resIcon=mxgraph.aws4.eventbridge;" vertex="1" parent="1">
          <mxGeometry x="385.00000000000006" y="224.5" width="40" height="40" as="geometry" />
        </mxCell>
        <mxCell id="6gfI8FkgVVdgUtyDe345-33" style="edgeStyle=orthogonalEdgeStyle;rounded=0;orthogonalLoop=1;jettySize=auto;html=1;entryX=0;entryY=0.5;entryDx=0;entryDy=0;entryPerimeter=0;" edge="1" parent="1" source="6gfI8FkgVVdgUtyDe345-4" target="6gfI8FkgVVdgUtyDe345-32">
          <mxGeometry relative="1" as="geometry">
            <Array as="points">
              <mxPoint x="295" y="340" />
              <mxPoint x="295" y="245" />
            </Array>
          </mxGeometry>
        </mxCell>
        <mxCell id="6gfI8FkgVVdgUtyDe345-35" style="edgeStyle=orthogonalEdgeStyle;rounded=0;orthogonalLoop=1;jettySize=auto;html=1;entryX=0;entryY=0.25;entryDx=0;entryDy=0;entryPerimeter=0;" edge="1" parent="1" source="6gfI8FkgVVdgUtyDe345-32" target="6gfI8FkgVVdgUtyDe345-10">
          <mxGeometry relative="1" as="geometry">
            <Array as="points">
              <mxPoint x="455" y="245" />
              <mxPoint x="455" y="342" />
            </Array>
          </mxGeometry>
        </mxCell>
        <mxCell id="6gfI8FkgVVdgUtyDe345-38" style="edgeStyle=orthogonalEdgeStyle;rounded=0;orthogonalLoop=1;jettySize=auto;html=1;entryX=0.538;entryY=0.008;entryDx=0;entryDy=0;entryPerimeter=0;" edge="1" parent="1" source="6gfI8FkgVVdgUtyDe345-16" target="6gfI8FkgVVdgUtyDe345-22">
          <mxGeometry relative="1" as="geometry">
            <Array as="points">
              <mxPoint x="850" y="200" />
              <mxPoint x="915" y="200" />
            </Array>
          </mxGeometry>
        </mxCell>
        <mxCell id="6gfI8FkgVVdgUtyDe345-51" style="edgeStyle=orthogonalEdgeStyle;rounded=0;orthogonalLoop=1;jettySize=auto;html=1;" edge="1" parent="1" source="6gfI8FkgVVdgUtyDe345-16" target="6gfI8FkgVVdgUtyDe345-44">
          <mxGeometry relative="1" as="geometry">
            <Array as="points">
              <mxPoint x="700" y="130" />
              <mxPoint x="700" y="685" />
            </Array>
          </mxGeometry>
        </mxCell>
        <mxCell id="6gfI8FkgVVdgUtyDe345-16" value="Quick Sight" style="sketch=0;points=[[0,0,0],[0.25,0,0],[0.5,0,0],[0.75,0,0],[1,0,0],[0,1,0],[0.25,1,0],[0.5,1,0],[0.75,1,0],[1,1,0],[0,0.25,0],[0,0.5,0],[0,0.75,0],[1,0.25,0],[1,0.5,0],[1,0.75,0]];outlineConnect=0;fontColor=#232F3E;fillColor=#8C4FFF;strokeColor=#ffffff;dashed=0;verticalLabelPosition=bottom;verticalAlign=top;align=center;html=1;fontSize=12;fontStyle=0;aspect=fixed;shape=mxgraph.aws4.resourceIcon;resIcon=mxgraph.aws4.quicksight;labelBackgroundColor=default;" vertex="1" parent="1">
          <mxGeometry x="826.6" y="104.75" width="50" height="50" as="geometry" />
        </mxCell>
        <mxCell id="6gfI8FkgVVdgUtyDe345-59" style="edgeStyle=orthogonalEdgeStyle;rounded=0;orthogonalLoop=1;jettySize=auto;html=1;" edge="1" parent="1" source="6gfI8FkgVVdgUtyDe345-40" target="6gfI8FkgVVdgUtyDe345-55">
          <mxGeometry relative="1" as="geometry" />
        </mxCell>
        <mxCell id="6gfI8FkgVVdgUtyDe345-40" value="" style="sketch=0;outlineConnect=0;fontColor=#232F3E;gradientColor=none;fillColor=#8C4FFF;strokeColor=none;dashed=0;verticalLabelPosition=bottom;verticalAlign=top;align=center;html=1;fontSize=12;fontStyle=0;aspect=fixed;pointerEvents=1;shape=mxgraph.aws4.glue_data_catalog;" vertex="1" parent="1">
          <mxGeometry x="386.54" y="774.62" width="36.92" height="40" as="geometry" />
        </mxCell>
        <mxCell id="6gfI8FkgVVdgUtyDe345-41" style="edgeStyle=orthogonalEdgeStyle;rounded=0;orthogonalLoop=1;jettySize=auto;html=1;" edge="1" parent="1" source="6gfI8FkgVVdgUtyDe345-43" target="6gfI8FkgVVdgUtyDe345-40">
          <mxGeometry relative="1" as="geometry" />
        </mxCell>
        <mxCell id="6gfI8FkgVVdgUtyDe345-42" style="edgeStyle=orthogonalEdgeStyle;rounded=0;orthogonalLoop=1;jettySize=auto;html=1;" edge="1" parent="1" source="6gfI8FkgVVdgUtyDe345-43" target="6gfI8FkgVVdgUtyDe345-44">
          <mxGeometry relative="1" as="geometry" />
        </mxCell>
        <mxCell id="6gfI8FkgVVdgUtyDe345-43" value="Glue ETL" style="sketch=0;points=[[0,0,0],[0.25,0,0],[0.5,0,0],[0.75,0,0],[1,0,0],[0,1,0],[0.25,1,0],[0.5,1,0],[0.75,1,0],[1,1,0],[0,0.25,0],[0,0.5,0],[0,0.75,0],[1,0.25,0],[1,0.5,0],[1,0.75,0]];outlineConnect=0;fontColor=#232F3E;fillColor=#8C4FFF;strokeColor=#ffffff;dashed=0;verticalLabelPosition=bottom;verticalAlign=top;align=center;html=1;fontSize=12;fontStyle=0;aspect=fixed;shape=mxgraph.aws4.resourceIcon;resIcon=mxgraph.aws4.glue;labelBackgroundColor=default;" vertex="1" parent="1">
          <mxGeometry x="495" y="769.62" width="50" height="50" as="geometry" />
        </mxCell>
        <mxCell id="6gfI8FkgVVdgUtyDe345-44" value="S3" style="sketch=0;outlineConnect=0;fontColor=#232F3E;gradientColor=none;fillColor=#7AA116;strokeColor=none;dashed=0;verticalLabelPosition=bottom;verticalAlign=top;align=center;html=1;fontSize=12;fontStyle=0;aspect=fixed;pointerEvents=1;shape=mxgraph.aws4.bucket;labelBackgroundColor=default;" vertex="1" parent="1">
          <mxGeometry x="495.96" y="659.75" width="48.08" height="50" as="geometry" />
        </mxCell>
        <mxCell id="6gfI8FkgVVdgUtyDe345-45" style="edgeStyle=orthogonalEdgeStyle;rounded=0;orthogonalLoop=1;jettySize=auto;html=1;" edge="1" parent="1" source="6gfI8FkgVVdgUtyDe345-46" target="6gfI8FkgVVdgUtyDe345-44">
          <mxGeometry relative="1" as="geometry" />
        </mxCell>
        <mxCell id="6gfI8FkgVVdgUtyDe345-46" value="Sagemaker" style="sketch=0;points=[[0,0,0],[0.25,0,0],[0.5,0,0],[0.75,0,0],[1,0,0],[0,1,0],[0.25,1,0],[0.5,1,0],[0.75,1,0],[1,1,0],[0,0.25,0],[0,0.5,0],[0,0.75,0],[1,0.25,0],[1,0.5,0],[1,0.75,0]];outlineConnect=0;fontColor=#232F3E;fillColor=#01A88D;strokeColor=#ffffff;dashed=0;verticalLabelPosition=bottom;verticalAlign=top;align=center;html=1;fontSize=12;fontStyle=0;aspect=fixed;shape=mxgraph.aws4.resourceIcon;resIcon=mxgraph.aws4.sagemaker;labelBackgroundColor=default;" vertex="1" parent="1">
          <mxGeometry x="425" y="545" width="50.25" height="50.25" as="geometry" />
        </mxCell>
        <mxCell id="6gfI8FkgVVdgUtyDe345-47" style="edgeStyle=orthogonalEdgeStyle;rounded=0;orthogonalLoop=1;jettySize=auto;html=1;" edge="1" parent="1" source="6gfI8FkgVVdgUtyDe345-48" target="6gfI8FkgVVdgUtyDe345-44">
          <mxGeometry relative="1" as="geometry">
            <Array as="points">
              <mxPoint x="520" y="570.25" />
            </Array>
          </mxGeometry>
        </mxCell>
        <mxCell id="6gfI8FkgVVdgUtyDe345-48" value="AWS Forecast" style="sketch=0;points=[[0,0,0],[0.25,0,0],[0.5,0,0],[0.75,0,0],[1,0,0],[0,1,0],[0.25,1,0],[0.5,1,0],[0.75,1,0],[1,1,0],[0,0.25,0],[0,0.5,0],[0,0.75,0],[1,0.25,0],[1,0.5,0],[1,0.75,0]];outlineConnect=0;fontColor=#232F3E;fillColor=#01A88D;strokeColor=#ffffff;dashed=0;verticalLabelPosition=bottom;verticalAlign=top;align=center;html=1;fontSize=12;fontStyle=0;aspect=fixed;shape=mxgraph.aws4.resourceIcon;resIcon=mxgraph.aws4.forecast;labelBackgroundColor=default;" vertex="1" parent="1">
          <mxGeometry x="560" y="545" width="50" height="50" as="geometry" />
        </mxCell>
        <mxCell id="6gfI8FkgVVdgUtyDe345-49" value="event bridge" style="sketch=0;points=[[0,0,0],[0.25,0,0],[0.5,0,0],[0.75,0,0],[1,0,0],[0,1,0],[0.25,1,0],[0.5,1,0],[0.75,1,0],[1,1,0],[0,0.25,0],[0,0.5,0],[0,0.75,0],[1,0.25,0],[1,0.5,0],[1,0.75,0]];outlineConnect=0;fontColor=#232F3E;fillColor=#E7157B;strokeColor=#ffffff;dashed=0;verticalLabelPosition=bottom;verticalAlign=top;align=center;html=1;fontSize=12;fontStyle=0;aspect=fixed;shape=mxgraph.aws4.resourceIcon;resIcon=mxgraph.aws4.eventbridge;" vertex="1" parent="1">
          <mxGeometry x="385.00000000000006" y="664.75" width="40" height="40" as="geometry" />
        </mxCell>
        <mxCell id="6gfI8FkgVVdgUtyDe345-50" style="edgeStyle=orthogonalEdgeStyle;rounded=0;orthogonalLoop=1;jettySize=auto;html=1;entryX=0;entryY=0.25;entryDx=0;entryDy=0;entryPerimeter=0;" edge="1" parent="1" source="6gfI8FkgVVdgUtyDe345-49" target="6gfI8FkgVVdgUtyDe345-43">
          <mxGeometry relative="1" as="geometry">
            <Array as="points">
              <mxPoint x="455" y="685.25" />
              <mxPoint x="455" y="782.25" />
            </Array>
          </mxGeometry>
        </mxCell>
        <mxCell id="6gfI8FkgVVdgUtyDe345-56" style="edgeStyle=orthogonalEdgeStyle;rounded=0;orthogonalLoop=1;jettySize=auto;html=1;" edge="1" parent="1" source="6gfI8FkgVVdgUtyDe345-53" target="6gfI8FkgVVdgUtyDe345-54">
          <mxGeometry relative="1" as="geometry" />
        </mxCell>
        <mxCell id="6gfI8FkgVVdgUtyDe345-53" value="receivables&lt;div&gt;controller&lt;/div&gt;" style="rounded=0;whiteSpace=wrap;html=1;" vertex="1" parent="1">
          <mxGeometry x="120" y="540" width="120" height="60" as="geometry" />
        </mxCell>
        <mxCell id="6gfI8FkgVVdgUtyDe345-57" style="edgeStyle=orthogonalEdgeStyle;rounded=0;orthogonalLoop=1;jettySize=auto;html=1;" edge="1" parent="1" source="6gfI8FkgVVdgUtyDe345-54" target="6gfI8FkgVVdgUtyDe345-55">
          <mxGeometry relative="1" as="geometry" />
        </mxCell>
        <mxCell id="6gfI8FkgVVdgUtyDe345-54" value="DB" style="outlineConnect=0;dashed=0;verticalLabelPosition=bottom;verticalAlign=top;align=center;html=1;shape=mxgraph.aws3.dynamo_db;fillColor=#2E73B8;gradientColor=none;labelBackgroundColor=default;" vertex="1" parent="1">
          <mxGeometry x="160" y="664.63" width="40" height="40.25" as="geometry" />
        </mxCell>
        <mxCell id="6gfI8FkgVVdgUtyDe345-55" value="S3" style="sketch=0;outlineConnect=0;fontColor=#232F3E;gradientColor=none;fillColor=#7AA116;strokeColor=none;dashed=0;verticalLabelPosition=bottom;verticalAlign=top;align=center;html=1;fontSize=12;fontStyle=0;aspect=fixed;pointerEvents=1;shape=mxgraph.aws4.bucket;labelBackgroundColor=default;" vertex="1" parent="1">
          <mxGeometry x="155.95999999999998" y="769.62" width="48.08" height="50" as="geometry" />
        </mxCell>
        <mxCell id="6gfI8FkgVVdgUtyDe345-58" style="edgeStyle=orthogonalEdgeStyle;rounded=0;orthogonalLoop=1;jettySize=auto;html=1;entryX=0;entryY=0.5;entryDx=0;entryDy=0;entryPerimeter=0;" edge="1" parent="1" source="6gfI8FkgVVdgUtyDe345-55" target="6gfI8FkgVVdgUtyDe345-49">
          <mxGeometry relative="1" as="geometry">
            <Array as="points">
              <mxPoint x="295" y="780" />
              <mxPoint x="295" y="685" />
            </Array>
          </mxGeometry>
        </mxCell>
      </root>
    </mxGraphModel>
  </diagram>
  <diagram name="Using QuickSight" id="ajtClxfbu8RJAKWpTM3W">
    <mxGraphModel dx="1481" dy="771" grid="1" gridSize="10" guides="1" tooltips="1" connect="1" arrows="1" fold="1" page="1" pageScale="1" pageWidth="850" pageHeight="1100" math="0" shadow="0">
      <root>
        <mxCell id="t0vKpmvOC6dS0SvQwcE4-0" />
        <mxCell id="t0vKpmvOC6dS0SvQwcE4-1" parent="t0vKpmvOC6dS0SvQwcE4-0" />
        <mxCell id="t0vKpmvOC6dS0SvQwcE4-2" value="HUB" style="rounded=0;whiteSpace=wrap;html=1;fillColor=#f5f5f5;fontColor=#333333;strokeColor=#666666;dashed=1;verticalAlign=top;" vertex="1" parent="t0vKpmvOC6dS0SvQwcE4-1">
          <mxGeometry x="40" y="480" width="280" height="400.25" as="geometry" />
        </mxCell>
        <mxCell id="t0vKpmvOC6dS0SvQwcE4-3" value="Sentinel" style="rounded=0;whiteSpace=wrap;html=1;fillColor=#fff2cc;strokeColor=#d6b656;dashed=1;verticalAlign=top;" vertex="1" parent="t0vKpmvOC6dS0SvQwcE4-1">
          <mxGeometry x="360" y="480" width="320" height="400.25" as="geometry" />
        </mxCell>
        <mxCell id="t0vKpmvOC6dS0SvQwcE4-4" value="Real-Time Visualization" style="rounded=0;whiteSpace=wrap;html=1;fillColor=#dae8fc;strokeColor=#6c8ebf;dashed=1;verticalAlign=top;" vertex="1" parent="t0vKpmvOC6dS0SvQwcE4-1">
          <mxGeometry x="720" y="40" width="280" height="400" as="geometry" />
        </mxCell>
        <mxCell id="t0vKpmvOC6dS0SvQwcE4-5" value="Storage Node" style="rounded=0;whiteSpace=wrap;html=1;fillColor=#f5f5f5;fontColor=#333333;strokeColor=#666666;dashed=1;verticalAlign=top;" vertex="1" parent="t0vKpmvOC6dS0SvQwcE4-1">
          <mxGeometry x="40" y="39.75" width="280" height="400.25" as="geometry" />
        </mxCell>
        <mxCell id="t0vKpmvOC6dS0SvQwcE4-6" value="write control" style="rounded=0;whiteSpace=wrap;html=1;" vertex="1" parent="t0vKpmvOC6dS0SvQwcE4-1">
          <mxGeometry x="120" y="99.75" width="120" height="60" as="geometry" />
        </mxCell>
        <mxCell id="t0vKpmvOC6dS0SvQwcE4-7" style="edgeStyle=orthogonalEdgeStyle;rounded=0;orthogonalLoop=1;jettySize=auto;html=1;" edge="1" parent="t0vKpmvOC6dS0SvQwcE4-1" source="t0vKpmvOC6dS0SvQwcE4-8" target="t0vKpmvOC6dS0SvQwcE4-10">
          <mxGeometry relative="1" as="geometry" />
        </mxCell>
        <mxCell id="t0vKpmvOC6dS0SvQwcE4-8" value="DB" style="outlineConnect=0;dashed=0;verticalLabelPosition=bottom;verticalAlign=top;align=center;html=1;shape=mxgraph.aws3.dynamo_db;fillColor=#2E73B8;gradientColor=none;labelBackgroundColor=default;" vertex="1" parent="t0vKpmvOC6dS0SvQwcE4-1">
          <mxGeometry x="160" y="224.38" width="40" height="40.25" as="geometry" />
        </mxCell>
        <mxCell id="t0vKpmvOC6dS0SvQwcE4-9" style="edgeStyle=orthogonalEdgeStyle;rounded=0;orthogonalLoop=1;jettySize=auto;html=1;entryX=0.5;entryY=0;entryDx=0;entryDy=0;entryPerimeter=0;" edge="1" parent="t0vKpmvOC6dS0SvQwcE4-1" source="t0vKpmvOC6dS0SvQwcE4-6" target="t0vKpmvOC6dS0SvQwcE4-8">
          <mxGeometry relative="1" as="geometry" />
        </mxCell>
        <mxCell id="t0vKpmvOC6dS0SvQwcE4-10" value="S3" style="sketch=0;outlineConnect=0;fontColor=#232F3E;gradientColor=none;fillColor=#7AA116;strokeColor=none;dashed=0;verticalLabelPosition=bottom;verticalAlign=top;align=center;html=1;fontSize=12;fontStyle=0;aspect=fixed;pointerEvents=1;shape=mxgraph.aws4.bucket;labelBackgroundColor=default;" vertex="1" parent="t0vKpmvOC6dS0SvQwcE4-1">
          <mxGeometry x="155.95999999999998" y="329.37" width="48.08" height="50" as="geometry" />
        </mxCell>
        <mxCell id="t0vKpmvOC6dS0SvQwcE4-11" value="Sentinel" style="rounded=0;whiteSpace=wrap;html=1;fillColor=#fff2cc;strokeColor=#d6b656;dashed=1;verticalAlign=top;" vertex="1" parent="t0vKpmvOC6dS0SvQwcE4-1">
          <mxGeometry x="360" y="39.75" width="320" height="400.25" as="geometry" />
        </mxCell>
        <mxCell id="t0vKpmvOC6dS0SvQwcE4-12" style="edgeStyle=orthogonalEdgeStyle;rounded=0;orthogonalLoop=1;jettySize=auto;html=1;" edge="1" parent="t0vKpmvOC6dS0SvQwcE4-1">
          <mxGeometry relative="1" as="geometry">
            <mxPoint x="447.7881818181818" y="300.25" as="sourcePoint" />
            <mxPoint x="210.00420568808588" y="354.85" as="targetPoint" />
            <Array as="points">
              <mxPoint x="335.97" y="299.85" />
              <mxPoint x="335.97" y="354.85" />
            </Array>
          </mxGeometry>
        </mxCell>
        <mxCell id="t0vKpmvOC6dS0SvQwcE4-13" value="" style="sketch=0;outlineConnect=0;fontColor=#232F3E;gradientColor=none;fillColor=#8C4FFF;strokeColor=none;dashed=0;verticalLabelPosition=bottom;verticalAlign=top;align=center;html=1;fontSize=12;fontStyle=0;aspect=fixed;pointerEvents=1;shape=mxgraph.aws4.glue_data_catalog;" vertex="1" parent="t0vKpmvOC6dS0SvQwcE4-1">
          <mxGeometry x="441.54" y="279.44" width="36.92" height="40" as="geometry" />
        </mxCell>
        <mxCell id="t0vKpmvOC6dS0SvQwcE4-14" style="edgeStyle=orthogonalEdgeStyle;rounded=0;orthogonalLoop=1;jettySize=auto;html=1;" edge="1" parent="t0vKpmvOC6dS0SvQwcE4-1" source="t0vKpmvOC6dS0SvQwcE4-16" target="t0vKpmvOC6dS0SvQwcE4-13">
          <mxGeometry relative="1" as="geometry" />
        </mxCell>
        <mxCell id="t0vKpmvOC6dS0SvQwcE4-15" style="edgeStyle=orthogonalEdgeStyle;rounded=0;orthogonalLoop=1;jettySize=auto;html=1;" edge="1" parent="t0vKpmvOC6dS0SvQwcE4-1" source="t0vKpmvOC6dS0SvQwcE4-16" target="t0vKpmvOC6dS0SvQwcE4-17">
          <mxGeometry relative="1" as="geometry" />
        </mxCell>
        <mxCell id="t0vKpmvOC6dS0SvQwcE4-16" value="Glue ETL" style="sketch=0;points=[[0,0,0],[0.25,0,0],[0.5,0,0],[0.75,0,0],[1,0,0],[0,1,0],[0.25,1,0],[0.5,1,0],[0.75,1,0],[1,1,0],[0,0.25,0],[0,0.5,0],[0,0.75,0],[1,0.25,0],[1,0.5,0],[1,0.75,0]];outlineConnect=0;fontColor=#232F3E;fillColor=#8C4FFF;strokeColor=#ffffff;dashed=0;verticalLabelPosition=bottom;verticalAlign=top;align=center;html=1;fontSize=12;fontStyle=0;aspect=fixed;shape=mxgraph.aws4.resourceIcon;resIcon=mxgraph.aws4.glue;labelBackgroundColor=default;" vertex="1" parent="t0vKpmvOC6dS0SvQwcE4-1">
          <mxGeometry x="550" y="274.44" width="50" height="50" as="geometry" />
        </mxCell>
        <mxCell id="t0vKpmvOC6dS0SvQwcE4-17" value="S3" style="sketch=0;outlineConnect=0;fontColor=#232F3E;gradientColor=none;fillColor=#7AA116;strokeColor=none;dashed=0;verticalLabelPosition=bottom;verticalAlign=top;align=center;html=1;fontSize=12;fontStyle=0;aspect=fixed;pointerEvents=1;shape=mxgraph.aws4.bucket;labelBackgroundColor=default;" vertex="1" parent="t0vKpmvOC6dS0SvQwcE4-1">
          <mxGeometry x="550.96" y="164.57" width="48.08" height="50" as="geometry" />
        </mxCell>
        <mxCell id="t0vKpmvOC6dS0SvQwcE4-20" style="edgeStyle=orthogonalEdgeStyle;rounded=0;orthogonalLoop=1;jettySize=auto;html=1;" edge="1" parent="t0vKpmvOC6dS0SvQwcE4-1" source="t0vKpmvOC6dS0SvQwcE4-33" target="t0vKpmvOC6dS0SvQwcE4-17">
          <mxGeometry relative="1" as="geometry">
            <Array as="points">
              <mxPoint x="700" y="130" />
              <mxPoint x="700" y="190" />
            </Array>
          </mxGeometry>
        </mxCell>
        <mxCell id="t0vKpmvOC6dS0SvQwcE4-21" style="edgeStyle=orthogonalEdgeStyle;rounded=0;orthogonalLoop=1;jettySize=auto;html=1;entryX=0.5;entryY=0;entryDx=0;entryDy=0;" edge="1" parent="t0vKpmvOC6dS0SvQwcE4-1" source="t0vKpmvOC6dS0SvQwcE4-33" target="t0vKpmvOC6dS0SvQwcE4-23">
          <mxGeometry relative="1" as="geometry">
            <Array as="points">
              <mxPoint x="850" y="200" />
              <mxPoint x="780" y="200" />
            </Array>
          </mxGeometry>
        </mxCell>
        <mxCell id="t0vKpmvOC6dS0SvQwcE4-22" value="Alertas" style="shadow=0;dashed=0;html=1;strokeColor=none;fillColor=#4495D1;labelPosition=center;verticalLabelPosition=bottom;verticalAlign=top;align=center;outlineConnect=0;shape=mxgraph.veeam.2d.alert;labelBackgroundColor=default;" vertex="1" parent="t0vKpmvOC6dS0SvQwcE4-1">
          <mxGeometry x="835" y="360" width="33.2" height="33.2" as="geometry" />
        </mxCell>
        <mxCell id="t0vKpmvOC6dS0SvQwcE4-23" value="Gráficos" style="image;html=1;image=img/lib/clip_art/finance/Pie_Chart_128x128.png" vertex="1" parent="t0vKpmvOC6dS0SvQwcE4-1">
          <mxGeometry x="745" y="240" width="70" height="60.25" as="geometry" />
        </mxCell>
        <mxCell id="t0vKpmvOC6dS0SvQwcE4-24" style="edgeStyle=orthogonalEdgeStyle;rounded=0;orthogonalLoop=1;jettySize=auto;html=1;" edge="1" parent="t0vKpmvOC6dS0SvQwcE4-1" source="t0vKpmvOC6dS0SvQwcE4-25" target="t0vKpmvOC6dS0SvQwcE4-22">
          <mxGeometry relative="1" as="geometry">
            <Array as="points">
              <mxPoint x="910" y="340" />
              <mxPoint x="852" y="340" />
            </Array>
          </mxGeometry>
        </mxCell>
        <mxCell id="t0vKpmvOC6dS0SvQwcE4-25" value="Detecção de anomalias" style="verticalLabelPosition=bottom;shadow=0;dashed=0;align=center;html=1;verticalAlign=top;strokeWidth=1;shape=mxgraph.mockup.graphics.lineChart;strokeColor=none;strokeColor2=#666666;strokeColor3=#008cff;strokeColor4=#dddddd;labelBackgroundColor=default;" vertex="1" parent="t0vKpmvOC6dS0SvQwcE4-1">
          <mxGeometry x="845" y="245.25" width="130" height="49.75" as="geometry" />
        </mxCell>
        <mxCell id="t0vKpmvOC6dS0SvQwcE4-28" value="event bridge" style="sketch=0;points=[[0,0,0],[0.25,0,0],[0.5,0,0],[0.75,0,0],[1,0,0],[0,1,0],[0.25,1,0],[0.5,1,0],[0.75,1,0],[1,1,0],[0,0.25,0],[0,0.5,0],[0,0.75,0],[1,0.25,0],[1,0.5,0],[1,0.75,0]];outlineConnect=0;fontColor=#232F3E;fillColor=#E7157B;strokeColor=#ffffff;dashed=0;verticalLabelPosition=bottom;verticalAlign=top;align=center;html=1;fontSize=12;fontStyle=0;aspect=fixed;shape=mxgraph.aws4.resourceIcon;resIcon=mxgraph.aws4.eventbridge;" vertex="1" parent="t0vKpmvOC6dS0SvQwcE4-1">
          <mxGeometry x="440.00000000000006" y="169.57" width="40" height="40" as="geometry" />
        </mxCell>
        <mxCell id="t0vKpmvOC6dS0SvQwcE4-29" style="edgeStyle=orthogonalEdgeStyle;rounded=0;orthogonalLoop=1;jettySize=auto;html=1;entryX=0;entryY=0.5;entryDx=0;entryDy=0;entryPerimeter=0;" edge="1" parent="t0vKpmvOC6dS0SvQwcE4-1" source="t0vKpmvOC6dS0SvQwcE4-10" target="t0vKpmvOC6dS0SvQwcE4-28">
          <mxGeometry relative="1" as="geometry">
            <Array as="points">
              <mxPoint x="295" y="340" />
              <mxPoint x="295" y="190" />
            </Array>
          </mxGeometry>
        </mxCell>
        <mxCell id="t0vKpmvOC6dS0SvQwcE4-30" style="edgeStyle=orthogonalEdgeStyle;rounded=0;orthogonalLoop=1;jettySize=auto;html=1;entryX=0;entryY=0.25;entryDx=0;entryDy=0;entryPerimeter=0;" edge="1" parent="t0vKpmvOC6dS0SvQwcE4-1" source="t0vKpmvOC6dS0SvQwcE4-28" target="t0vKpmvOC6dS0SvQwcE4-16">
          <mxGeometry relative="1" as="geometry">
            <Array as="points">
              <mxPoint x="520" y="190" />
              <mxPoint x="520" y="287" />
            </Array>
          </mxGeometry>
        </mxCell>
        <mxCell id="t0vKpmvOC6dS0SvQwcE4-31" style="edgeStyle=orthogonalEdgeStyle;rounded=0;orthogonalLoop=1;jettySize=auto;html=1;entryX=0.538;entryY=0.008;entryDx=0;entryDy=0;entryPerimeter=0;" edge="1" parent="t0vKpmvOC6dS0SvQwcE4-1" source="t0vKpmvOC6dS0SvQwcE4-33" target="t0vKpmvOC6dS0SvQwcE4-25">
          <mxGeometry relative="1" as="geometry">
            <Array as="points">
              <mxPoint x="850" y="200" />
              <mxPoint x="915" y="200" />
            </Array>
          </mxGeometry>
        </mxCell>
        <mxCell id="t0vKpmvOC6dS0SvQwcE4-32" style="edgeStyle=orthogonalEdgeStyle;rounded=0;orthogonalLoop=1;jettySize=auto;html=1;" edge="1" parent="t0vKpmvOC6dS0SvQwcE4-1" source="t0vKpmvOC6dS0SvQwcE4-33" target="t0vKpmvOC6dS0SvQwcE4-39">
          <mxGeometry relative="1" as="geometry">
            <Array as="points">
              <mxPoint x="700" y="130" />
              <mxPoint x="700" y="630" />
            </Array>
          </mxGeometry>
        </mxCell>
        <mxCell id="t0vKpmvOC6dS0SvQwcE4-33" value="Quick Sight" style="sketch=0;points=[[0,0,0],[0.25,0,0],[0.5,0,0],[0.75,0,0],[1,0,0],[0,1,0],[0.25,1,0],[0.5,1,0],[0.75,1,0],[1,1,0],[0,0.25,0],[0,0.5,0],[0,0.75,0],[1,0.25,0],[1,0.5,0],[1,0.75,0]];outlineConnect=0;fontColor=#232F3E;fillColor=#8C4FFF;strokeColor=#ffffff;dashed=0;verticalLabelPosition=bottom;verticalAlign=top;align=center;html=1;fontSize=12;fontStyle=0;aspect=fixed;shape=mxgraph.aws4.resourceIcon;resIcon=mxgraph.aws4.quicksight;labelBackgroundColor=default;" vertex="1" parent="t0vKpmvOC6dS0SvQwcE4-1">
          <mxGeometry x="826.6" y="104.75" width="50" height="50" as="geometry" />
        </mxCell>
        <mxCell id="t0vKpmvOC6dS0SvQwcE4-34" style="edgeStyle=orthogonalEdgeStyle;rounded=0;orthogonalLoop=1;jettySize=auto;html=1;" edge="1" parent="t0vKpmvOC6dS0SvQwcE4-1" source="t0vKpmvOC6dS0SvQwcE4-35" target="t0vKpmvOC6dS0SvQwcE4-50">
          <mxGeometry relative="1" as="geometry">
            <Array as="points">
              <mxPoint x="340" y="740" />
              <mxPoint x="340" y="795" />
            </Array>
          </mxGeometry>
        </mxCell>
        <mxCell id="t0vKpmvOC6dS0SvQwcE4-35" value="" style="sketch=0;outlineConnect=0;fontColor=#232F3E;gradientColor=none;fillColor=#8C4FFF;strokeColor=none;dashed=0;verticalLabelPosition=bottom;verticalAlign=top;align=center;html=1;fontSize=12;fontStyle=0;aspect=fixed;pointerEvents=1;shape=mxgraph.aws4.glue_data_catalog;" vertex="1" parent="t0vKpmvOC6dS0SvQwcE4-1">
          <mxGeometry x="440.58000000000004" y="719.69" width="36.92" height="40" as="geometry" />
        </mxCell>
        <mxCell id="t0vKpmvOC6dS0SvQwcE4-36" style="edgeStyle=orthogonalEdgeStyle;rounded=0;orthogonalLoop=1;jettySize=auto;html=1;" edge="1" parent="t0vKpmvOC6dS0SvQwcE4-1" source="t0vKpmvOC6dS0SvQwcE4-38" target="t0vKpmvOC6dS0SvQwcE4-35">
          <mxGeometry relative="1" as="geometry" />
        </mxCell>
        <mxCell id="t0vKpmvOC6dS0SvQwcE4-37" style="edgeStyle=orthogonalEdgeStyle;rounded=0;orthogonalLoop=1;jettySize=auto;html=1;" edge="1" parent="t0vKpmvOC6dS0SvQwcE4-1" source="t0vKpmvOC6dS0SvQwcE4-38" target="t0vKpmvOC6dS0SvQwcE4-39">
          <mxGeometry relative="1" as="geometry" />
        </mxCell>
        <mxCell id="t0vKpmvOC6dS0SvQwcE4-38" value="Glue ETL" style="sketch=0;points=[[0,0,0],[0.25,0,0],[0.5,0,0],[0.75,0,0],[1,0,0],[0,1,0],[0.25,1,0],[0.5,1,0],[0.75,1,0],[1,1,0],[0,0.25,0],[0,0.5,0],[0,0.75,0],[1,0.25,0],[1,0.5,0],[1,0.75,0]];outlineConnect=0;fontColor=#232F3E;fillColor=#8C4FFF;strokeColor=#ffffff;dashed=0;verticalLabelPosition=bottom;verticalAlign=top;align=center;html=1;fontSize=12;fontStyle=0;aspect=fixed;shape=mxgraph.aws4.resourceIcon;resIcon=mxgraph.aws4.glue;labelBackgroundColor=default;" vertex="1" parent="t0vKpmvOC6dS0SvQwcE4-1">
          <mxGeometry x="549.04" y="714.69" width="50" height="50" as="geometry" />
        </mxCell>
        <mxCell id="t0vKpmvOC6dS0SvQwcE4-39" value="S3" style="sketch=0;outlineConnect=0;fontColor=#232F3E;gradientColor=none;fillColor=#7AA116;strokeColor=none;dashed=0;verticalLabelPosition=bottom;verticalAlign=top;align=center;html=1;fontSize=12;fontStyle=0;aspect=fixed;pointerEvents=1;shape=mxgraph.aws4.bucket;labelBackgroundColor=default;" vertex="1" parent="t0vKpmvOC6dS0SvQwcE4-1">
          <mxGeometry x="550" y="604.82" width="48.08" height="50" as="geometry" />
        </mxCell>
        <mxCell id="t0vKpmvOC6dS0SvQwcE4-44" value="event bridge" style="sketch=0;points=[[0,0,0],[0.25,0,0],[0.5,0,0],[0.75,0,0],[1,0,0],[0,1,0],[0.25,1,0],[0.5,1,0],[0.75,1,0],[1,1,0],[0,0.25,0],[0,0.5,0],[0,0.75,0],[1,0.25,0],[1,0.5,0],[1,0.75,0]];outlineConnect=0;fontColor=#232F3E;fillColor=#E7157B;strokeColor=#ffffff;dashed=0;verticalLabelPosition=bottom;verticalAlign=top;align=center;html=1;fontSize=12;fontStyle=0;aspect=fixed;shape=mxgraph.aws4.resourceIcon;resIcon=mxgraph.aws4.eventbridge;" vertex="1" parent="t0vKpmvOC6dS0SvQwcE4-1">
          <mxGeometry x="439.0400000000001" y="609.82" width="40" height="40" as="geometry" />
        </mxCell>
        <mxCell id="t0vKpmvOC6dS0SvQwcE4-45" style="edgeStyle=orthogonalEdgeStyle;rounded=0;orthogonalLoop=1;jettySize=auto;html=1;entryX=0;entryY=0.25;entryDx=0;entryDy=0;entryPerimeter=0;" edge="1" parent="t0vKpmvOC6dS0SvQwcE4-1" source="t0vKpmvOC6dS0SvQwcE4-44" target="t0vKpmvOC6dS0SvQwcE4-38">
          <mxGeometry relative="1" as="geometry">
            <Array as="points">
              <mxPoint x="520" y="630" />
              <mxPoint x="520" y="727" />
            </Array>
          </mxGeometry>
        </mxCell>
        <mxCell id="t0vKpmvOC6dS0SvQwcE4-46" style="edgeStyle=orthogonalEdgeStyle;rounded=0;orthogonalLoop=1;jettySize=auto;html=1;" edge="1" parent="t0vKpmvOC6dS0SvQwcE4-1" source="t0vKpmvOC6dS0SvQwcE4-47" target="t0vKpmvOC6dS0SvQwcE4-49">
          <mxGeometry relative="1" as="geometry" />
        </mxCell>
        <mxCell id="t0vKpmvOC6dS0SvQwcE4-47" value="receivables&lt;div&gt;controller&lt;/div&gt;" style="rounded=0;whiteSpace=wrap;html=1;" vertex="1" parent="t0vKpmvOC6dS0SvQwcE4-1">
          <mxGeometry x="120" y="540" width="120" height="60" as="geometry" />
        </mxCell>
        <mxCell id="t0vKpmvOC6dS0SvQwcE4-48" style="edgeStyle=orthogonalEdgeStyle;rounded=0;orthogonalLoop=1;jettySize=auto;html=1;" edge="1" parent="t0vKpmvOC6dS0SvQwcE4-1" source="t0vKpmvOC6dS0SvQwcE4-49" target="t0vKpmvOC6dS0SvQwcE4-50">
          <mxGeometry relative="1" as="geometry" />
        </mxCell>
        <mxCell id="t0vKpmvOC6dS0SvQwcE4-49" value="DB" style="outlineConnect=0;dashed=0;verticalLabelPosition=bottom;verticalAlign=top;align=center;html=1;shape=mxgraph.aws3.dynamo_db;fillColor=#2E73B8;gradientColor=none;labelBackgroundColor=default;" vertex="1" parent="t0vKpmvOC6dS0SvQwcE4-1">
          <mxGeometry x="160" y="664.63" width="40" height="40.25" as="geometry" />
        </mxCell>
        <mxCell id="t0vKpmvOC6dS0SvQwcE4-50" value="S3" style="sketch=0;outlineConnect=0;fontColor=#232F3E;gradientColor=none;fillColor=#7AA116;strokeColor=none;dashed=0;verticalLabelPosition=bottom;verticalAlign=top;align=center;html=1;fontSize=12;fontStyle=0;aspect=fixed;pointerEvents=1;shape=mxgraph.aws4.bucket;labelBackgroundColor=default;" vertex="1" parent="t0vKpmvOC6dS0SvQwcE4-1">
          <mxGeometry x="155.95999999999998" y="769.62" width="48.08" height="50" as="geometry" />
        </mxCell>
        <mxCell id="t0vKpmvOC6dS0SvQwcE4-51" style="edgeStyle=orthogonalEdgeStyle;rounded=0;orthogonalLoop=1;jettySize=auto;html=1;entryX=0;entryY=0.5;entryDx=0;entryDy=0;entryPerimeter=0;" edge="1" parent="t0vKpmvOC6dS0SvQwcE4-1" source="t0vKpmvOC6dS0SvQwcE4-50" target="t0vKpmvOC6dS0SvQwcE4-44">
          <mxGeometry relative="1" as="geometry">
            <Array as="points">
              <mxPoint x="295" y="780" />
              <mxPoint x="295" y="630" />
            </Array>
          </mxGeometry>
        </mxCell>
      </root>
    </mxGraphModel>
  </diagram>
</mxfile>
